<mxfile host="Electron" modified="2024-06-30T14:35:59.427Z" agent="Mozilla/5.0 (Windows NT 10.0; Win64; x64) AppleWebKit/537.36 (KHTML, like Gecko) draw.io/24.6.1 Chrome/124.0.6367.207 Electron/30.0.6 Safari/537.36" etag="S79lmep-xAqIvCMr-Z_8" version="24.6.1" type="device" pages="4">
  <diagram name="Stickers" id="xM5DYGiuRpSARZKX_39L">
    <mxGraphModel dx="2245" dy="820" grid="1" gridSize="10" guides="1" tooltips="1" connect="1" arrows="1" fold="1" page="1" pageScale="1" pageWidth="827" pageHeight="1169" math="0" shadow="0">
      <root>
        <mxCell id="0" />
        <mxCell id="1" parent="0" />
        <mxCell id="TlnyL6aYkQ4jOY0lI_5h-1" value="" style="whiteSpace=wrap;html=1;aspect=fixed;fillColor=#1ba1e2;fontColor=#000000;strokeColor=#006EAF;" parent="1" vertex="1">
          <mxGeometry x="20" y="20" width="80" height="80" as="geometry" />
        </mxCell>
        <mxCell id="TlnyL6aYkQ4jOY0lI_5h-2" value="" style="whiteSpace=wrap;html=1;aspect=fixed;fillColor=#ffcccc;strokeColor=#36393d;fontColor=#000000;" parent="1" vertex="1">
          <mxGeometry x="20" y="120" width="80" height="80" as="geometry" />
        </mxCell>
        <mxCell id="TlnyL6aYkQ4jOY0lI_5h-3" value="" style="whiteSpace=wrap;html=1;aspect=fixed;fillColor=#ffff88;strokeColor=#36393d;fontColor=#000000;" parent="1" vertex="1">
          <mxGeometry x="20" y="220" width="80" height="80" as="geometry" />
        </mxCell>
        <mxCell id="TlnyL6aYkQ4jOY0lI_5h-4" value="" style="whiteSpace=wrap;html=1;aspect=fixed;fillColor=#cdeb8b;strokeColor=#36393d;fontColor=#000000;" parent="1" vertex="1">
          <mxGeometry x="20" y="320" width="80" height="80" as="geometry" />
        </mxCell>
        <mxCell id="TlnyL6aYkQ4jOY0lI_5h-5" value="Event" style="text;html=1;align=center;verticalAlign=middle;resizable=0;points=[];autosize=1;strokeColor=none;fillColor=none;" parent="1" vertex="1">
          <mxGeometry x="95" y="248" width="50" height="30" as="geometry" />
        </mxCell>
        <mxCell id="TlnyL6aYkQ4jOY0lI_5h-6" value="Who" style="text;html=1;align=center;verticalAlign=middle;resizable=0;points=[];autosize=1;strokeColor=none;fillColor=none;" parent="1" vertex="1">
          <mxGeometry x="95" y="338" width="50" height="30" as="geometry" />
        </mxCell>
        <mxCell id="TlnyL6aYkQ4jOY0lI_5h-7" value="Command" style="text;html=1;align=center;verticalAlign=middle;resizable=0;points=[];autosize=1;strokeColor=none;fillColor=none;" parent="1" vertex="1">
          <mxGeometry x="90" y="145" width="80" height="30" as="geometry" />
        </mxCell>
        <mxCell id="TlnyL6aYkQ4jOY0lI_5h-8" value="Look" style="text;html=1;align=center;verticalAlign=middle;resizable=0;points=[];autosize=1;strokeColor=none;fillColor=none;" parent="1" vertex="1">
          <mxGeometry x="90" y="48" width="50" height="30" as="geometry" />
        </mxCell>
        <mxCell id="TlnyL6aYkQ4jOY0lI_5h-12" value="" style="group" parent="1" vertex="1" connectable="0">
          <mxGeometry x="100" y="550" width="350" height="110" as="geometry" />
        </mxCell>
        <mxCell id="TlnyL6aYkQ4jOY0lI_5h-9" value="Character&lt;div&gt;Selected&lt;/div&gt;" style="whiteSpace=wrap;html=1;aspect=fixed;fillColor=#ffff88;strokeColor=#36393d;fontColor=#000000;" parent="TlnyL6aYkQ4jOY0lI_5h-12" vertex="1">
          <mxGeometry x="240" width="110" height="110" as="geometry" />
        </mxCell>
        <mxCell id="TlnyL6aYkQ4jOY0lI_5h-10" value="Player" style="whiteSpace=wrap;html=1;aspect=fixed;fillColor=#cdeb8b;strokeColor=#36393d;fontColor=#000000;" parent="TlnyL6aYkQ4jOY0lI_5h-12" vertex="1">
          <mxGeometry width="110" height="110" as="geometry" />
        </mxCell>
        <mxCell id="TlnyL6aYkQ4jOY0lI_5h-11" value="SwitchCharacter" style="whiteSpace=wrap;html=1;aspect=fixed;fillColor=#ffcccc;strokeColor=#36393d;fontColor=#000000;" parent="TlnyL6aYkQ4jOY0lI_5h-12" vertex="1">
          <mxGeometry x="120" width="110" height="110" as="geometry" />
        </mxCell>
        <mxCell id="TlnyL6aYkQ4jOY0lI_5h-20" value="" style="group" parent="1" vertex="1" connectable="0">
          <mxGeometry x="-280" y="550" width="350" height="110" as="geometry" />
        </mxCell>
        <mxCell id="TlnyL6aYkQ4jOY0lI_5h-13" value="Player&lt;div&gt;Switched&lt;/div&gt;" style="whiteSpace=wrap;html=1;aspect=fixed;fillColor=#ffff88;strokeColor=#36393d;fontColor=#000000;" parent="TlnyL6aYkQ4jOY0lI_5h-20" vertex="1">
          <mxGeometry x="240" width="110" height="110" as="geometry" />
        </mxCell>
        <mxCell id="TlnyL6aYkQ4jOY0lI_5h-17" value="SwitchPlayer" style="whiteSpace=wrap;html=1;aspect=fixed;fillColor=#ffcccc;strokeColor=#36393d;fontColor=#000000;" parent="TlnyL6aYkQ4jOY0lI_5h-20" vertex="1">
          <mxGeometry x="120" width="110" height="110" as="geometry" />
        </mxCell>
        <mxCell id="TlnyL6aYkQ4jOY0lI_5h-18" value="Program" style="whiteSpace=wrap;html=1;aspect=fixed;fillColor=#cdeb8b;strokeColor=#36393d;fontColor=#000000;" parent="TlnyL6aYkQ4jOY0lI_5h-20" vertex="1">
          <mxGeometry width="110" height="110" as="geometry" />
        </mxCell>
        <mxCell id="TlnyL6aYkQ4jOY0lI_5h-29" value="" style="group" parent="1" vertex="1" connectable="0">
          <mxGeometry x="100" y="750" width="350" height="110" as="geometry" />
        </mxCell>
        <mxCell id="TlnyL6aYkQ4jOY0lI_5h-14" value="Character&lt;div&gt;&lt;div&gt;Moved&lt;/div&gt;&lt;/div&gt;" style="whiteSpace=wrap;html=1;aspect=fixed;fillColor=#ffff88;strokeColor=#36393d;fontColor=#000000;" parent="TlnyL6aYkQ4jOY0lI_5h-29" vertex="1">
          <mxGeometry x="240" width="110" height="110" as="geometry" />
        </mxCell>
        <mxCell id="TlnyL6aYkQ4jOY0lI_5h-21" value="MoveCharacter" style="whiteSpace=wrap;html=1;aspect=fixed;fillColor=#ffcccc;strokeColor=#36393d;fontColor=#000000;" parent="TlnyL6aYkQ4jOY0lI_5h-29" vertex="1">
          <mxGeometry x="120" width="110" height="110" as="geometry" />
        </mxCell>
        <mxCell id="TlnyL6aYkQ4jOY0lI_5h-22" value="Player" style="whiteSpace=wrap;html=1;aspect=fixed;fillColor=#cdeb8b;strokeColor=#36393d;fontColor=#000000;" parent="TlnyL6aYkQ4jOY0lI_5h-29" vertex="1">
          <mxGeometry width="110" height="110" as="geometry" />
        </mxCell>
        <mxCell id="TlnyL6aYkQ4jOY0lI_5h-30" value="" style="group" parent="1" vertex="1" connectable="0">
          <mxGeometry x="891" y="780" width="350" height="110" as="geometry" />
        </mxCell>
        <mxCell id="TlnyL6aYkQ4jOY0lI_5h-15" value="(visible)&lt;div&gt;&lt;br&gt;&lt;/div&gt;&lt;div&gt;Scene&lt;div&gt;Displayed&lt;/div&gt;&lt;/div&gt;" style="whiteSpace=wrap;html=1;aspect=fixed;fillColor=#ffff88;strokeColor=#36393d;fontColor=#000000;" parent="TlnyL6aYkQ4jOY0lI_5h-30" vertex="1">
          <mxGeometry x="240" width="110" height="110" as="geometry" />
        </mxCell>
        <mxCell id="TlnyL6aYkQ4jOY0lI_5h-23" value="DisplayScene" style="whiteSpace=wrap;html=1;aspect=fixed;fillColor=#ffcccc;strokeColor=#36393d;fontColor=#000000;" parent="TlnyL6aYkQ4jOY0lI_5h-30" vertex="1">
          <mxGeometry x="120" width="110" height="110" as="geometry" />
        </mxCell>
        <mxCell id="TlnyL6aYkQ4jOY0lI_5h-24" value="Player" style="whiteSpace=wrap;html=1;aspect=fixed;fillColor=#cdeb8b;strokeColor=#36393d;fontColor=#000000;" parent="TlnyL6aYkQ4jOY0lI_5h-30" vertex="1">
          <mxGeometry width="110" height="110" as="geometry" />
        </mxCell>
        <mxCell id="TlnyL6aYkQ4jOY0lI_5h-31" value="" style="group" parent="1" vertex="1" connectable="0">
          <mxGeometry x="110" y="940" width="350" height="110" as="geometry" />
        </mxCell>
        <mxCell id="TlnyL6aYkQ4jOY0lI_5h-16" value="CharacterEnter&lt;span style=&quot;background-color: initial;&quot;&gt;ed&lt;/span&gt;&lt;div&gt;&lt;span style=&quot;background-color: initial;&quot;&gt;Scene&lt;/span&gt;&lt;/div&gt;" style="whiteSpace=wrap;html=1;aspect=fixed;fillColor=#ffff88;strokeColor=#36393d;fontColor=#000000;" parent="TlnyL6aYkQ4jOY0lI_5h-31" vertex="1">
          <mxGeometry x="240" width="110" height="110" as="geometry" />
        </mxCell>
        <mxCell id="TlnyL6aYkQ4jOY0lI_5h-25" value="EnterScene" style="whiteSpace=wrap;html=1;aspect=fixed;fillColor=#ffcccc;strokeColor=#36393d;fontColor=#000000;" parent="TlnyL6aYkQ4jOY0lI_5h-31" vertex="1">
          <mxGeometry x="120" width="110" height="110" as="geometry" />
        </mxCell>
        <mxCell id="TlnyL6aYkQ4jOY0lI_5h-27" value="Player" style="whiteSpace=wrap;html=1;aspect=fixed;fillColor=#cdeb8b;strokeColor=#36393d;fontColor=#000000;" parent="TlnyL6aYkQ4jOY0lI_5h-31" vertex="1">
          <mxGeometry width="110" height="110" as="geometry" />
        </mxCell>
        <mxCell id="yvfeiney4mRpanTf7Kij-2" value="" style="group" parent="1" vertex="1" connectable="0">
          <mxGeometry x="500" y="420" width="350" height="110" as="geometry" />
        </mxCell>
        <mxCell id="yvfeiney4mRpanTf7Kij-3" value="ItemAdded" style="whiteSpace=wrap;html=1;aspect=fixed;fillColor=#ffff88;strokeColor=#36393d;fontColor=#000000;" parent="yvfeiney4mRpanTf7Kij-2" vertex="1">
          <mxGeometry x="240" width="110" height="110" as="geometry" />
        </mxCell>
        <mxCell id="yvfeiney4mRpanTf7Kij-4" value="AddItem" style="whiteSpace=wrap;html=1;aspect=fixed;fillColor=#ffcccc;strokeColor=#36393d;fontColor=#000000;" parent="yvfeiney4mRpanTf7Kij-2" vertex="1">
          <mxGeometry x="120" width="110" height="110" as="geometry" />
        </mxCell>
        <mxCell id="yvfeiney4mRpanTf7Kij-5" value="Program" style="whiteSpace=wrap;html=1;aspect=fixed;fillColor=#cdeb8b;strokeColor=#36393d;fontColor=#000000;" parent="yvfeiney4mRpanTf7Kij-2" vertex="1">
          <mxGeometry width="110" height="110" as="geometry" />
        </mxCell>
        <mxCell id="yvfeiney4mRpanTf7Kij-6" value="" style="group" parent="1" vertex="1" connectable="0">
          <mxGeometry x="500" y="550" width="350" height="110" as="geometry" />
        </mxCell>
        <mxCell id="yvfeiney4mRpanTf7Kij-7" value="ItemRemoved" style="whiteSpace=wrap;html=1;aspect=fixed;fillColor=#ffff88;strokeColor=#36393d;fontColor=#000000;" parent="yvfeiney4mRpanTf7Kij-6" vertex="1">
          <mxGeometry x="240" width="110" height="110" as="geometry" />
        </mxCell>
        <mxCell id="yvfeiney4mRpanTf7Kij-8" value="RemoveItem" style="whiteSpace=wrap;html=1;aspect=fixed;fillColor=#ffcccc;strokeColor=#36393d;fontColor=#000000;" parent="yvfeiney4mRpanTf7Kij-6" vertex="1">
          <mxGeometry x="120" width="110" height="110" as="geometry" />
        </mxCell>
        <mxCell id="yvfeiney4mRpanTf7Kij-9" value="Program" style="whiteSpace=wrap;html=1;aspect=fixed;fillColor=#cdeb8b;strokeColor=#36393d;fontColor=#000000;" parent="yvfeiney4mRpanTf7Kij-6" vertex="1">
          <mxGeometry width="110" height="110" as="geometry" />
        </mxCell>
        <mxCell id="yvfeiney4mRpanTf7Kij-10" value="" style="group" parent="1" vertex="1" connectable="0">
          <mxGeometry x="891" y="420" width="350" height="110" as="geometry" />
        </mxCell>
        <mxCell id="yvfeiney4mRpanTf7Kij-11" value="SceneAdded" style="whiteSpace=wrap;html=1;aspect=fixed;fillColor=#ffff88;strokeColor=#36393d;fontColor=#000000;" parent="yvfeiney4mRpanTf7Kij-10" vertex="1">
          <mxGeometry x="240" width="110" height="110" as="geometry" />
        </mxCell>
        <mxCell id="yvfeiney4mRpanTf7Kij-12" value="AddScene" style="whiteSpace=wrap;html=1;aspect=fixed;fillColor=#ffcccc;strokeColor=#36393d;fontColor=#000000;" parent="yvfeiney4mRpanTf7Kij-10" vertex="1">
          <mxGeometry x="120" width="110" height="110" as="geometry" />
        </mxCell>
        <mxCell id="yvfeiney4mRpanTf7Kij-13" value="Program" style="whiteSpace=wrap;html=1;aspect=fixed;fillColor=#cdeb8b;strokeColor=#36393d;fontColor=#000000;" parent="yvfeiney4mRpanTf7Kij-10" vertex="1">
          <mxGeometry width="110" height="110" as="geometry" />
        </mxCell>
        <mxCell id="yvfeiney4mRpanTf7Kij-14" value="" style="group" parent="1" vertex="1" connectable="0">
          <mxGeometry x="891" y="600" width="350" height="110" as="geometry" />
        </mxCell>
        <mxCell id="yvfeiney4mRpanTf7Kij-15" value="SceneRemoved" style="whiteSpace=wrap;html=1;aspect=fixed;fillColor=#ffff88;strokeColor=#36393d;fontColor=#000000;" parent="yvfeiney4mRpanTf7Kij-14" vertex="1">
          <mxGeometry x="240" width="110" height="110" as="geometry" />
        </mxCell>
        <mxCell id="yvfeiney4mRpanTf7Kij-16" value="RemoveScene" style="whiteSpace=wrap;html=1;aspect=fixed;fillColor=#ffcccc;strokeColor=#36393d;fontColor=#000000;" parent="yvfeiney4mRpanTf7Kij-14" vertex="1">
          <mxGeometry x="120" width="110" height="110" as="geometry" />
        </mxCell>
        <mxCell id="yvfeiney4mRpanTf7Kij-17" value="Program" style="whiteSpace=wrap;html=1;aspect=fixed;fillColor=#cdeb8b;strokeColor=#36393d;fontColor=#000000;" parent="yvfeiney4mRpanTf7Kij-14" vertex="1">
          <mxGeometry width="110" height="110" as="geometry" />
        </mxCell>
        <mxCell id="yvfeiney4mRpanTf7Kij-18" value="" style="group" parent="1" vertex="1" connectable="0">
          <mxGeometry x="500" y="680" width="350" height="110" as="geometry" />
        </mxCell>
        <mxCell id="1bPYrIaI68IYt1ihMwZv-1" value="ItemAssigned" style="whiteSpace=wrap;html=1;aspect=fixed;fillColor=#ffff88;strokeColor=#36393d;fontColor=#000000;" parent="yvfeiney4mRpanTf7Kij-18" vertex="1">
          <mxGeometry x="240" width="110" height="110" as="geometry" />
        </mxCell>
        <mxCell id="1bPYrIaI68IYt1ihMwZv-5" value="AssignItem&lt;div&gt;&lt;br&gt;&lt;/div&gt;&lt;div&gt;(to character)&lt;/div&gt;" style="whiteSpace=wrap;html=1;aspect=fixed;fillColor=#ffcccc;strokeColor=#36393d;fontColor=#000000;" parent="yvfeiney4mRpanTf7Kij-18" vertex="1">
          <mxGeometry x="120" width="110" height="110" as="geometry" />
        </mxCell>
        <mxCell id="1bPYrIaI68IYt1ihMwZv-9" value="Player" style="whiteSpace=wrap;html=1;aspect=fixed;fillColor=#cdeb8b;strokeColor=#36393d;fontColor=#000000;" parent="yvfeiney4mRpanTf7Kij-18" vertex="1">
          <mxGeometry width="110" height="110" as="geometry" />
        </mxCell>
        <mxCell id="yvfeiney4mRpanTf7Kij-19" value="" style="group" parent="1" vertex="1" connectable="0">
          <mxGeometry x="500" y="811" width="350" height="110" as="geometry" />
        </mxCell>
        <mxCell id="1bPYrIaI68IYt1ihMwZv-2" value="ItemUnassigned" style="whiteSpace=wrap;html=1;aspect=fixed;fillColor=#ffff88;strokeColor=#36393d;fontColor=#000000;" parent="yvfeiney4mRpanTf7Kij-19" vertex="1">
          <mxGeometry x="240" width="110" height="110" as="geometry" />
        </mxCell>
        <mxCell id="1bPYrIaI68IYt1ihMwZv-6" value="UnassignItem&lt;div&gt;&lt;br&gt;&lt;/div&gt;&lt;div&gt;(from a character)&lt;/div&gt;" style="whiteSpace=wrap;html=1;aspect=fixed;fillColor=#ffcccc;strokeColor=#36393d;fontColor=#000000;" parent="yvfeiney4mRpanTf7Kij-19" vertex="1">
          <mxGeometry x="120" width="110" height="110" as="geometry" />
        </mxCell>
        <mxCell id="1bPYrIaI68IYt1ihMwZv-10" value="Player" style="whiteSpace=wrap;html=1;aspect=fixed;fillColor=#cdeb8b;strokeColor=#36393d;fontColor=#000000;" parent="yvfeiney4mRpanTf7Kij-19" vertex="1">
          <mxGeometry width="110" height="110" as="geometry" />
        </mxCell>
        <mxCell id="yvfeiney4mRpanTf7Kij-20" value="" style="group" parent="1" vertex="1" connectable="0">
          <mxGeometry x="1280" y="420" width="350" height="110" as="geometry" />
        </mxCell>
        <mxCell id="1bPYrIaI68IYt1ihMwZv-13" value="DialogAdded" style="whiteSpace=wrap;html=1;aspect=fixed;fillColor=#ffff88;strokeColor=#36393d;fontColor=#000000;" parent="yvfeiney4mRpanTf7Kij-20" vertex="1">
          <mxGeometry x="240" width="110" height="110" as="geometry" />
        </mxCell>
        <mxCell id="1bPYrIaI68IYt1ihMwZv-14" value="AddDialog" style="whiteSpace=wrap;html=1;aspect=fixed;fillColor=#ffcccc;strokeColor=#36393d;fontColor=#000000;" parent="yvfeiney4mRpanTf7Kij-20" vertex="1">
          <mxGeometry x="120" width="110" height="110" as="geometry" />
        </mxCell>
        <mxCell id="1bPYrIaI68IYt1ihMwZv-15" value="Program" style="whiteSpace=wrap;html=1;aspect=fixed;fillColor=#cdeb8b;strokeColor=#36393d;fontColor=#000000;" parent="yvfeiney4mRpanTf7Kij-20" vertex="1">
          <mxGeometry width="110" height="110" as="geometry" />
        </mxCell>
        <mxCell id="6xUrvK1wtA-suA-K_xOE-1" value="" style="group" parent="1" vertex="1" connectable="0">
          <mxGeometry x="-280" y="750" width="350" height="110" as="geometry" />
        </mxCell>
        <mxCell id="6xUrvK1wtA-suA-K_xOE-2" value="CharacterAdded" style="whiteSpace=wrap;html=1;aspect=fixed;fillColor=#ffff88;strokeColor=#36393d;fontColor=#000000;" parent="6xUrvK1wtA-suA-K_xOE-1" vertex="1">
          <mxGeometry x="240" width="110" height="110" as="geometry" />
        </mxCell>
        <mxCell id="6xUrvK1wtA-suA-K_xOE-3" value="Player" style="whiteSpace=wrap;html=1;aspect=fixed;fillColor=#cdeb8b;strokeColor=#36393d;fontColor=#000000;" parent="6xUrvK1wtA-suA-K_xOE-1" vertex="1">
          <mxGeometry width="110" height="110" as="geometry" />
        </mxCell>
        <mxCell id="6xUrvK1wtA-suA-K_xOE-4" value="AddCharacter" style="whiteSpace=wrap;html=1;aspect=fixed;fillColor=#ffcccc;strokeColor=#36393d;fontColor=#000000;" parent="6xUrvK1wtA-suA-K_xOE-1" vertex="1">
          <mxGeometry x="120" width="110" height="110" as="geometry" />
        </mxCell>
        <mxCell id="6xUrvK1wtA-suA-K_xOE-5" value="" style="group" parent="1" vertex="1" connectable="0">
          <mxGeometry x="-275" y="950" width="350" height="110" as="geometry" />
        </mxCell>
        <mxCell id="6xUrvK1wtA-suA-K_xOE-6" value="CharacterRemoved" style="whiteSpace=wrap;html=1;aspect=fixed;fillColor=#ffff88;strokeColor=#36393d;fontColor=#000000;" parent="6xUrvK1wtA-suA-K_xOE-5" vertex="1">
          <mxGeometry x="240" width="110" height="110" as="geometry" />
        </mxCell>
        <mxCell id="6xUrvK1wtA-suA-K_xOE-7" value="Player" style="whiteSpace=wrap;html=1;aspect=fixed;fillColor=#cdeb8b;strokeColor=#36393d;fontColor=#000000;" parent="6xUrvK1wtA-suA-K_xOE-5" vertex="1">
          <mxGeometry width="110" height="110" as="geometry" />
        </mxCell>
        <mxCell id="6xUrvK1wtA-suA-K_xOE-8" value="RemoveCharacter" style="whiteSpace=wrap;html=1;aspect=fixed;fillColor=#ffcccc;strokeColor=#36393d;fontColor=#000000;" parent="6xUrvK1wtA-suA-K_xOE-5" vertex="1">
          <mxGeometry x="120" width="110" height="110" as="geometry" />
        </mxCell>
        <mxCell id="6xUrvK1wtA-suA-K_xOE-17" value="" style="group" parent="1" vertex="1" connectable="0">
          <mxGeometry x="500" y="940" width="350" height="110" as="geometry" />
        </mxCell>
        <mxCell id="6xUrvK1wtA-suA-K_xOE-18" value="ItemPicked" style="whiteSpace=wrap;html=1;aspect=fixed;fillColor=#ffff88;strokeColor=#36393d;fontColor=#000000;" parent="6xUrvK1wtA-suA-K_xOE-17" vertex="1">
          <mxGeometry x="240" width="110" height="110" as="geometry" />
        </mxCell>
        <mxCell id="6xUrvK1wtA-suA-K_xOE-19" value="PickItem" style="whiteSpace=wrap;html=1;aspect=fixed;fillColor=#ffcccc;strokeColor=#36393d;fontColor=#000000;" parent="6xUrvK1wtA-suA-K_xOE-17" vertex="1">
          <mxGeometry x="120" width="110" height="110" as="geometry" />
        </mxCell>
        <mxCell id="6xUrvK1wtA-suA-K_xOE-20" value="Player" style="whiteSpace=wrap;html=1;aspect=fixed;fillColor=#cdeb8b;strokeColor=#36393d;fontColor=#000000;" parent="6xUrvK1wtA-suA-K_xOE-17" vertex="1">
          <mxGeometry width="110" height="110" as="geometry" />
        </mxCell>
        <mxCell id="6xUrvK1wtA-suA-K_xOE-21" value="" style="group" parent="1" vertex="1" connectable="0">
          <mxGeometry x="1280" y="550" width="350" height="110" as="geometry" />
        </mxCell>
        <mxCell id="6xUrvK1wtA-suA-K_xOE-22" value="DialogSession&lt;div&gt;Entered&lt;/div&gt;" style="whiteSpace=wrap;html=1;aspect=fixed;fillColor=#ffff88;strokeColor=#36393d;fontColor=#000000;" parent="6xUrvK1wtA-suA-K_xOE-21" vertex="1">
          <mxGeometry x="240" width="110" height="110" as="geometry" />
        </mxCell>
        <mxCell id="6xUrvK1wtA-suA-K_xOE-23" value="EnterDialog&lt;div&gt;Session&lt;/div&gt;" style="whiteSpace=wrap;html=1;aspect=fixed;fillColor=#ffcccc;strokeColor=#36393d;fontColor=#000000;" parent="6xUrvK1wtA-suA-K_xOE-21" vertex="1">
          <mxGeometry x="120" width="110" height="110" as="geometry" />
        </mxCell>
        <mxCell id="6xUrvK1wtA-suA-K_xOE-24" value="Player" style="whiteSpace=wrap;html=1;aspect=fixed;fillColor=#cdeb8b;strokeColor=#36393d;fontColor=#000000;" parent="6xUrvK1wtA-suA-K_xOE-21" vertex="1">
          <mxGeometry width="110" height="110" as="geometry" />
        </mxCell>
        <mxCell id="6xUrvK1wtA-suA-K_xOE-25" value="" style="group" parent="1" vertex="1" connectable="0">
          <mxGeometry x="1280" y="680" width="350" height="110" as="geometry" />
        </mxCell>
        <mxCell id="6xUrvK1wtA-suA-K_xOE-26" value="DialogSession&lt;div&gt;Left&lt;/div&gt;" style="whiteSpace=wrap;html=1;aspect=fixed;fillColor=#ffff88;strokeColor=#36393d;fontColor=#000000;" parent="6xUrvK1wtA-suA-K_xOE-25" vertex="1">
          <mxGeometry x="240" width="110" height="110" as="geometry" />
        </mxCell>
        <mxCell id="6xUrvK1wtA-suA-K_xOE-27" value="LeaveDialog&lt;div&gt;Session&lt;/div&gt;" style="whiteSpace=wrap;html=1;aspect=fixed;fillColor=#ffcccc;strokeColor=#36393d;fontColor=#000000;" parent="6xUrvK1wtA-suA-K_xOE-25" vertex="1">
          <mxGeometry x="120" width="110" height="110" as="geometry" />
        </mxCell>
        <mxCell id="6xUrvK1wtA-suA-K_xOE-28" value="Player" style="whiteSpace=wrap;html=1;aspect=fixed;fillColor=#cdeb8b;strokeColor=#36393d;fontColor=#000000;" parent="6xUrvK1wtA-suA-K_xOE-25" vertex="1">
          <mxGeometry width="110" height="110" as="geometry" />
        </mxCell>
        <mxCell id="zq4TLkH_dGe_qp6wEPIx-1" value="GIVEN a game and a player&lt;div&gt;WHEN I switch to this player&lt;/div&gt;&lt;div&gt;THEN the game&#39;s active player becomes this player.&lt;/div&gt;" style="text;html=1;align=left;verticalAlign=middle;resizable=0;points=[];autosize=1;strokeColor=none;fillColor=none;" parent="1" vertex="1">
          <mxGeometry x="-280" y="490" width="300" height="60" as="geometry" />
        </mxCell>
        <mxCell id="rlMZrt3LhaXndTvH7TKC-1" value="&lt;div style=&quot;text-align: left;&quot;&gt;&lt;span style=&quot;background-color: initial;&quot;&gt;GIVEN a game and a playable characer&lt;/span&gt;&lt;/div&gt;&lt;div style=&quot;text-align: left;&quot;&gt;WHEN the character is added to the game&lt;br&gt;&lt;/div&gt;&lt;div style=&quot;text-align: left;&quot;&gt;THEN this character is added to the list of playable game characters&lt;br&gt;&lt;/div&gt;" style="text;html=1;align=center;verticalAlign=middle;resizable=0;points=[];autosize=1;strokeColor=none;fillColor=none;" parent="1" vertex="1">
          <mxGeometry x="-295" y="690" width="390" height="60" as="geometry" />
        </mxCell>
        <mxCell id="PxvA1PS9xyWyh0wfdwlw-1" value="&lt;div style=&quot;text-align: left;&quot;&gt;&lt;span style=&quot;background-color: initial;&quot;&gt;GIVEN a game and a playable characer&lt;/span&gt;&lt;/div&gt;&lt;div style=&quot;text-align: left;&quot;&gt;WHEN the character is removed from the game&lt;br&gt;&lt;/div&gt;&lt;div style=&quot;text-align: left;&quot;&gt;THEN this character is removed from the list of playable game characters&lt;br&gt;&lt;/div&gt;" style="text;html=1;align=center;verticalAlign=middle;resizable=0;points=[];autosize=1;strokeColor=none;fillColor=none;" parent="1" vertex="1">
          <mxGeometry x="-290" y="890" width="410" height="60" as="geometry" />
        </mxCell>
        <mxCell id="PxvA1PS9xyWyh0wfdwlw-2" value="GIVEN a game with two or more characters (one active)&lt;div&gt;WHEN I switch to the inactive Character&lt;/div&gt;&lt;div&gt;THEN the game&#39;s active character becomes this character..&lt;/div&gt;" style="text;html=1;align=left;verticalAlign=middle;resizable=0;points=[];autosize=1;strokeColor=none;fillColor=none;" parent="1" vertex="1">
          <mxGeometry x="100" y="490" width="340" height="60" as="geometry" />
        </mxCell>
        <mxCell id="8vl4A5w0Ad3wMceru9tP-1" value="&lt;div style=&quot;text-align: left;&quot;&gt;&lt;span style=&quot;background-color: initial;&quot;&gt;GIVEN a game and a scene&lt;/span&gt;&lt;/div&gt;&lt;div style=&quot;text-align: left;&quot;&gt;WHEN the scene is added to the game&lt;br&gt;&lt;/div&gt;&lt;div style=&quot;text-align: left;&quot;&gt;THEN this scene is added to the list of playable game scenes&lt;br&gt;&lt;/div&gt;" style="text;html=1;align=center;verticalAlign=middle;resizable=0;points=[];autosize=1;strokeColor=none;fillColor=none;" parent="1" vertex="1">
          <mxGeometry x="880" y="360" width="350" height="60" as="geometry" />
        </mxCell>
        <mxCell id="Uf7KQmjOKHjB7uJesLzn-1" value="GIVEN a character and a destination game&#39;s scene&lt;div&gt;WHEN the character enters the destination&lt;/div&gt;&lt;div&gt;THEN the character&#39;s current scene becomes the destination scene.&lt;/div&gt;" style="text;html=1;align=left;verticalAlign=middle;resizable=0;points=[];autosize=1;strokeColor=none;fillColor=none;" vertex="1" parent="1">
          <mxGeometry x="110" y="890" width="390" height="60" as="geometry" />
        </mxCell>
        <mxCell id="Uf7KQmjOKHjB7uJesLzn-2" value="&lt;div style=&quot;text-align: left;&quot;&gt;&lt;span style=&quot;background-color: initial;&quot;&gt;GIVEN a game and a scene&lt;/span&gt;&lt;/div&gt;&lt;div style=&quot;text-align: left;&quot;&gt;WHEN the scene is removed from the game&lt;br&gt;&lt;/div&gt;&lt;div style=&quot;text-align: left;&quot;&gt;THEN this scene is removed from the list of playable game scenes&lt;br&gt;&lt;/div&gt;" style="text;html=1;align=center;verticalAlign=middle;resizable=0;points=[];autosize=1;strokeColor=none;fillColor=none;" vertex="1" parent="1">
          <mxGeometry x="880" y="550" width="380" height="60" as="geometry" />
        </mxCell>
        <mxCell id="Uf7KQmjOKHjB7uJesLzn-3" value="&lt;div style=&quot;text-align: left;&quot;&gt;&lt;span style=&quot;background-color: initial;&quot;&gt;GIVEN a game and a scene&lt;/span&gt;&lt;/div&gt;&lt;div style=&quot;text-align: left;&quot;&gt;WHEN the scene is displayed&lt;br&gt;&lt;/div&gt;&lt;div style=&quot;text-align: left;&quot;&gt;THEN this scene becomes the current game&#39;s scene&lt;br&gt;&lt;/div&gt;" style="text;html=1;align=center;verticalAlign=middle;resizable=0;points=[];autosize=1;strokeColor=none;fillColor=none;" vertex="1" parent="1">
          <mxGeometry x="880" y="730" width="300" height="60" as="geometry" />
        </mxCell>
      </root>
    </mxGraphModel>
  </diagram>
  <diagram id="HvplHPruJHnVy4KX6I2v" name="State Machine">
    <mxGraphModel dx="1434" dy="836" grid="1" gridSize="10" guides="1" tooltips="1" connect="1" arrows="1" fold="1" page="1" pageScale="1" pageWidth="827" pageHeight="1169" math="0" shadow="0">
      <root>
        <mxCell id="0" />
        <mxCell id="1" parent="0" />
        <mxCell id="OelX0h5e4Qa-kqERJP6T-8" style="edgeStyle=orthogonalEdgeStyle;rounded=0;orthogonalLoop=1;jettySize=auto;html=1;exitX=1;exitY=0.5;exitDx=0;exitDy=0;entryX=0;entryY=0.5;entryDx=0;entryDy=0;" parent="1" source="3W6sU6Ms6yzGnlQYI0Jg-2" target="OelX0h5e4Qa-kqERJP6T-4" edge="1">
          <mxGeometry relative="1" as="geometry" />
        </mxCell>
        <mxCell id="3W6sU6Ms6yzGnlQYI0Jg-2" value="" style="ellipse;whiteSpace=wrap;html=1;aspect=fixed;" parent="1" vertex="1">
          <mxGeometry x="40" y="140" width="30" height="30" as="geometry" />
        </mxCell>
        <mxCell id="OelX0h5e4Qa-kqERJP6T-4" value="Game controlled by computer" style="swimlane;fontStyle=0;childLayout=stackLayout;horizontal=1;startSize=30;horizontalStack=0;resizeParent=1;resizeParentMax=0;resizeLast=0;collapsible=1;marginBottom=0;whiteSpace=wrap;html=1;rounded=1;" parent="1" vertex="1">
          <mxGeometry x="130" y="125" width="140" height="60" as="geometry" />
        </mxCell>
        <mxCell id="OelX0h5e4Qa-kqERJP6T-5" value="Computer Player" style="text;strokeColor=none;fillColor=none;align=left;verticalAlign=middle;spacingLeft=4;spacingRight=4;overflow=hidden;points=[[0,0.5],[1,0.5]];portConstraint=eastwest;rotatable=0;whiteSpace=wrap;html=1;" parent="OelX0h5e4Qa-kqERJP6T-4" vertex="1">
          <mxGeometry y="30" width="140" height="30" as="geometry" />
        </mxCell>
        <mxCell id="OelX0h5e4Qa-kqERJP6T-9" value="Game controlled by human" style="swimlane;fontStyle=0;childLayout=stackLayout;horizontal=1;startSize=30;horizontalStack=0;resizeParent=1;resizeParentMax=0;resizeLast=0;collapsible=1;marginBottom=0;whiteSpace=wrap;html=1;rounded=1;" parent="1" vertex="1">
          <mxGeometry x="460" y="125" width="140" height="60" as="geometry" />
        </mxCell>
        <mxCell id="OelX0h5e4Qa-kqERJP6T-10" value="Human player" style="text;strokeColor=none;fillColor=none;align=left;verticalAlign=middle;spacingLeft=4;spacingRight=4;overflow=hidden;points=[[0,0.5],[1,0.5]];portConstraint=eastwest;rotatable=0;whiteSpace=wrap;html=1;fontColor=#FF66FF;" parent="OelX0h5e4Qa-kqERJP6T-9" vertex="1">
          <mxGeometry y="30" width="140" height="30" as="geometry" />
        </mxCell>
        <mxCell id="OelX0h5e4Qa-kqERJP6T-13" style="edgeStyle=orthogonalEdgeStyle;rounded=0;orthogonalLoop=1;jettySize=auto;html=1;exitX=1;exitY=0.5;exitDx=0;exitDy=0;" parent="1" source="OelX0h5e4Qa-kqERJP6T-5" edge="1">
          <mxGeometry relative="1" as="geometry">
            <mxPoint x="270" y="200" as="sourcePoint" />
            <mxPoint x="460" y="170" as="targetPoint" />
            <Array as="points">
              <mxPoint x="460" y="170" />
            </Array>
          </mxGeometry>
        </mxCell>
        <mxCell id="OelX0h5e4Qa-kqERJP6T-14" value="SwitchPlayer" style="edgeLabel;html=1;align=center;verticalAlign=middle;resizable=0;points=[];" parent="OelX0h5e4Qa-kqERJP6T-13" vertex="1" connectable="0">
          <mxGeometry x="-0.1495" relative="1" as="geometry">
            <mxPoint as="offset" />
          </mxGeometry>
        </mxCell>
      </root>
    </mxGraphModel>
  </diagram>
  <diagram id="NNrYWjCh6-Ic09DyryM7" name="Entities">
    <mxGraphModel dx="1434" dy="2005" grid="1" gridSize="10" guides="1" tooltips="1" connect="1" arrows="1" fold="1" page="1" pageScale="1" pageWidth="827" pageHeight="1169" math="0" shadow="0">
      <root>
        <mxCell id="0" />
        <mxCell id="1" parent="0" />
        <mxCell id="JiMifVL7XntbfqWGSU4P-1" value="Character" style="ellipse;whiteSpace=wrap;html=1;fillColor=#e6d0de;strokeColor=#996185;gradientColor=#d5739d;" parent="1" vertex="1">
          <mxGeometry x="400" y="68" width="120" height="80" as="geometry" />
        </mxCell>
        <mxCell id="JiMifVL7XntbfqWGSU4P-2" value="" style="ellipse;whiteSpace=wrap;html=1;" parent="1" vertex="1">
          <mxGeometry x="30" y="60" width="70" height="40" as="geometry" />
        </mxCell>
        <mxCell id="JiMifVL7XntbfqWGSU4P-5" value="Entity" style="text;html=1;align=center;verticalAlign=middle;resizable=0;points=[];autosize=1;strokeColor=none;fillColor=none;" parent="1" vertex="1">
          <mxGeometry x="95" y="68" width="50" height="30" as="geometry" />
        </mxCell>
        <mxCell id="JiMifVL7XntbfqWGSU4P-6" value="" style="rounded=1;whiteSpace=wrap;html=1;" parent="1" vertex="1">
          <mxGeometry x="25" y="120" width="85" height="30" as="geometry" />
        </mxCell>
        <mxCell id="JiMifVL7XntbfqWGSU4P-7" value="Value Object" style="text;html=1;align=center;verticalAlign=middle;resizable=0;points=[];autosize=1;strokeColor=none;fillColor=none;" parent="1" vertex="1">
          <mxGeometry x="105" y="118" width="90" height="30" as="geometry" />
        </mxCell>
        <mxCell id="JiMifVL7XntbfqWGSU4P-8" value="Item" style="ellipse;whiteSpace=wrap;html=1;" parent="1" vertex="1">
          <mxGeometry x="150" y="290" width="120" height="80" as="geometry" />
        </mxCell>
        <mxCell id="JiMifVL7XntbfqWGSU4P-10" value="Id" style="rounded=1;whiteSpace=wrap;html=1;" parent="1" vertex="1">
          <mxGeometry x="70" y="470" width="120" height="60" as="geometry" />
        </mxCell>
        <mxCell id="JiMifVL7XntbfqWGSU4P-11" value="" style="endArrow=none;html=1;rounded=0;entryX=0;entryY=1;entryDx=0;entryDy=0;exitX=0.5;exitY=0;exitDx=0;exitDy=0;" parent="1" source="JiMifVL7XntbfqWGSU4P-10" target="JiMifVL7XntbfqWGSU4P-8" edge="1">
          <mxGeometry width="50" height="50" relative="1" as="geometry">
            <mxPoint x="320" y="470" as="sourcePoint" />
            <mxPoint x="370" y="420" as="targetPoint" />
          </mxGeometry>
        </mxCell>
        <mxCell id="JiMifVL7XntbfqWGSU4P-12" value="Scene" style="ellipse;whiteSpace=wrap;html=1;" parent="1" vertex="1">
          <mxGeometry x="536" y="370" width="120" height="80" as="geometry" />
        </mxCell>
        <mxCell id="JiMifVL7XntbfqWGSU4P-15" value="Location" style="rounded=1;whiteSpace=wrap;html=1;" parent="1" vertex="1">
          <mxGeometry x="720" y="180" width="120" height="60" as="geometry" />
        </mxCell>
        <mxCell id="JiMifVL7XntbfqWGSU4P-16" value="" style="endArrow=none;html=1;rounded=0;entryX=1;entryY=0.5;entryDx=0;entryDy=0;exitX=0;exitY=0;exitDx=0;exitDy=0;" parent="1" source="JiMifVL7XntbfqWGSU4P-15" target="JiMifVL7XntbfqWGSU4P-1" edge="1">
          <mxGeometry width="50" height="50" relative="1" as="geometry">
            <mxPoint x="390" y="440" as="sourcePoint" />
            <mxPoint x="440" y="390" as="targetPoint" />
          </mxGeometry>
        </mxCell>
        <mxCell id="JiMifVL7XntbfqWGSU4P-17" value="Name" style="rounded=1;whiteSpace=wrap;html=1;" parent="1" vertex="1">
          <mxGeometry x="460" y="490" width="120" height="60" as="geometry" />
        </mxCell>
        <mxCell id="JiMifVL7XntbfqWGSU4P-18" value="Id" style="rounded=1;whiteSpace=wrap;html=1;" parent="1" vertex="1">
          <mxGeometry x="740" y="98" width="120" height="60" as="geometry" />
        </mxCell>
        <mxCell id="JiMifVL7XntbfqWGSU4P-20" value="" style="endArrow=none;html=1;rounded=0;entryX=1;entryY=0.5;entryDx=0;entryDy=0;exitX=0;exitY=0.5;exitDx=0;exitDy=0;" parent="1" source="JiMifVL7XntbfqWGSU4P-18" target="JiMifVL7XntbfqWGSU4P-1" edge="1">
          <mxGeometry width="50" height="50" relative="1" as="geometry">
            <mxPoint x="390" y="440" as="sourcePoint" />
            <mxPoint x="440" y="390" as="targetPoint" />
          </mxGeometry>
        </mxCell>
        <mxCell id="JiMifVL7XntbfqWGSU4P-21" value="" style="endArrow=none;html=1;rounded=0;entryX=0.167;entryY=0.938;entryDx=0;entryDy=0;entryPerimeter=0;exitX=0.425;exitY=-0.033;exitDx=0;exitDy=0;exitPerimeter=0;" parent="1" source="JiMifVL7XntbfqWGSU4P-17" target="JiMifVL7XntbfqWGSU4P-12" edge="1">
          <mxGeometry width="50" height="50" relative="1" as="geometry">
            <mxPoint x="496" y="560" as="sourcePoint" />
            <mxPoint x="546" y="510" as="targetPoint" />
          </mxGeometry>
        </mxCell>
        <mxCell id="JiMifVL7XntbfqWGSU4P-22" value="ActiveZone" style="ellipse;whiteSpace=wrap;html=1;" parent="1" vertex="1">
          <mxGeometry x="746" y="510" width="120" height="80" as="geometry" />
        </mxCell>
        <mxCell id="JiMifVL7XntbfqWGSU4P-23" value="Name" style="rounded=1;whiteSpace=wrap;html=1;" parent="1" vertex="1">
          <mxGeometry x="7.5" y="370" width="120" height="60" as="geometry" />
        </mxCell>
        <mxCell id="JiMifVL7XntbfqWGSU4P-24" value="" style="endArrow=none;html=1;rounded=0;entryX=-0.008;entryY=0.663;entryDx=0;entryDy=0;entryPerimeter=0;exitX=0.858;exitY=0.033;exitDx=0;exitDy=0;exitPerimeter=0;" parent="1" source="JiMifVL7XntbfqWGSU4P-23" target="JiMifVL7XntbfqWGSU4P-8" edge="1">
          <mxGeometry width="50" height="50" relative="1" as="geometry">
            <mxPoint x="320" y="470" as="sourcePoint" />
            <mxPoint x="370" y="420" as="targetPoint" />
          </mxGeometry>
        </mxCell>
        <mxCell id="JiMifVL7XntbfqWGSU4P-25" value="Id" style="rounded=1;whiteSpace=wrap;html=1;" parent="1" vertex="1">
          <mxGeometry x="696" y="380" width="120" height="60" as="geometry" />
        </mxCell>
        <mxCell id="JiMifVL7XntbfqWGSU4P-26" value="" style="endArrow=none;html=1;rounded=0;entryX=1;entryY=0.5;entryDx=0;entryDy=0;exitX=0;exitY=0.5;exitDx=0;exitDy=0;" parent="1" source="JiMifVL7XntbfqWGSU4P-25" target="JiMifVL7XntbfqWGSU4P-12" edge="1">
          <mxGeometry width="50" height="50" relative="1" as="geometry">
            <mxPoint x="496" y="560" as="sourcePoint" />
            <mxPoint x="546" y="510" as="targetPoint" />
          </mxGeometry>
        </mxCell>
        <mxCell id="JiMifVL7XntbfqWGSU4P-27" value="" style="endArrow=none;html=1;rounded=0;entryX=1;entryY=1;entryDx=0;entryDy=0;" parent="1" source="JiMifVL7XntbfqWGSU4P-22" target="JiMifVL7XntbfqWGSU4P-12" edge="1">
          <mxGeometry width="50" height="50" relative="1" as="geometry">
            <mxPoint x="496" y="560" as="sourcePoint" />
            <mxPoint x="546" y="510" as="targetPoint" />
          </mxGeometry>
        </mxCell>
        <mxCell id="JiMifVL7XntbfqWGSU4P-28" value="Id" style="rounded=1;whiteSpace=wrap;html=1;" parent="1" vertex="1">
          <mxGeometry x="866" y="630" width="120" height="60" as="geometry" />
        </mxCell>
        <mxCell id="JiMifVL7XntbfqWGSU4P-29" value="" style="endArrow=none;html=1;rounded=0;entryX=0.967;entryY=0.775;entryDx=0;entryDy=0;entryPerimeter=0;exitX=0.567;exitY=-0.067;exitDx=0;exitDy=0;exitPerimeter=0;" parent="1" source="JiMifVL7XntbfqWGSU4P-28" target="JiMifVL7XntbfqWGSU4P-22" edge="1">
          <mxGeometry width="50" height="50" relative="1" as="geometry">
            <mxPoint x="496" y="560" as="sourcePoint" />
            <mxPoint x="546" y="510" as="targetPoint" />
          </mxGeometry>
        </mxCell>
        <mxCell id="JiMifVL7XntbfqWGSU4P-30" value="ReachableState" style="rounded=1;whiteSpace=wrap;html=1;" parent="1" vertex="1">
          <mxGeometry x="626" y="620" width="120" height="60" as="geometry" />
        </mxCell>
        <mxCell id="JiMifVL7XntbfqWGSU4P-31" value="" style="endArrow=none;html=1;rounded=0;entryX=0.733;entryY=1.013;entryDx=0;entryDy=0;entryPerimeter=0;exitX=0.575;exitY=-0.033;exitDx=0;exitDy=0;exitPerimeter=0;" parent="1" source="JiMifVL7XntbfqWGSU4P-30" target="JiMifVL7XntbfqWGSU4P-12" edge="1">
          <mxGeometry width="50" height="50" relative="1" as="geometry">
            <mxPoint x="496" y="560" as="sourcePoint" />
            <mxPoint x="546" y="510" as="targetPoint" />
          </mxGeometry>
        </mxCell>
        <mxCell id="JiMifVL7XntbfqWGSU4P-33" value="DisplayedState" style="rounded=1;whiteSpace=wrap;html=1;" parent="1" vertex="1">
          <mxGeometry x="486" y="600" width="120" height="60" as="geometry" />
        </mxCell>
        <mxCell id="JiMifVL7XntbfqWGSU4P-34" value="" style="endArrow=none;html=1;rounded=0;entryX=0.45;entryY=1.038;entryDx=0;entryDy=0;entryPerimeter=0;exitX=0.858;exitY=-0.033;exitDx=0;exitDy=0;exitPerimeter=0;" parent="1" source="JiMifVL7XntbfqWGSU4P-33" target="JiMifVL7XntbfqWGSU4P-12" edge="1">
          <mxGeometry width="50" height="50" relative="1" as="geometry">
            <mxPoint x="496" y="560" as="sourcePoint" />
            <mxPoint x="546" y="510" as="targetPoint" />
          </mxGeometry>
        </mxCell>
        <mxCell id="JiMifVL7XntbfqWGSU4P-36" value="IsActive" style="rounded=1;whiteSpace=wrap;html=1;" parent="1" vertex="1">
          <mxGeometry x="576" y="250" width="120" height="60" as="geometry" />
        </mxCell>
        <mxCell id="JiMifVL7XntbfqWGSU4P-37" value="" style="endArrow=none;html=1;rounded=0;entryX=0.667;entryY=1;entryDx=0;entryDy=0;entryPerimeter=0;exitX=0.117;exitY=0.05;exitDx=0;exitDy=0;exitPerimeter=0;" parent="1" source="JiMifVL7XntbfqWGSU4P-36" target="JiMifVL7XntbfqWGSU4P-1" edge="1">
          <mxGeometry width="50" height="50" relative="1" as="geometry">
            <mxPoint x="390" y="440" as="sourcePoint" />
            <mxPoint x="440" y="390" as="targetPoint" />
          </mxGeometry>
        </mxCell>
        <mxCell id="JiMifVL7XntbfqWGSU4P-39" value="" style="endArrow=none;html=1;rounded=0;entryX=0.5;entryY=1;entryDx=0;entryDy=0;" parent="1" source="JiMifVL7XntbfqWGSU4P-12" target="JiMifVL7XntbfqWGSU4P-1" edge="1">
          <mxGeometry width="50" height="50" relative="1" as="geometry">
            <mxPoint x="370" y="118" as="sourcePoint" />
            <mxPoint x="440" y="390" as="targetPoint" />
          </mxGeometry>
        </mxCell>
        <mxCell id="JiMifVL7XntbfqWGSU4P-40" value="Rectangle" style="rounded=1;whiteSpace=wrap;html=1;" parent="1" vertex="1">
          <mxGeometry x="760" y="700" width="120" height="60" as="geometry" />
        </mxCell>
        <mxCell id="JiMifVL7XntbfqWGSU4P-41" value="" style="endArrow=none;html=1;rounded=0;entryX=0.5;entryY=1;entryDx=0;entryDy=0;exitX=0.5;exitY=0;exitDx=0;exitDy=0;" parent="1" source="JiMifVL7XntbfqWGSU4P-40" target="JiMifVL7XntbfqWGSU4P-22" edge="1">
          <mxGeometry width="50" height="50" relative="1" as="geometry">
            <mxPoint x="390" y="440" as="sourcePoint" />
            <mxPoint x="440" y="390" as="targetPoint" />
          </mxGeometry>
        </mxCell>
        <mxCell id="JiMifVL7XntbfqWGSU4P-43" value="" style="endArrow=none;html=1;rounded=0;entryX=0.942;entryY=0.3;entryDx=0;entryDy=0;exitX=0.5;exitY=1;exitDx=0;exitDy=0;entryPerimeter=0;" parent="1" source="JiMifVL7XntbfqWGSU4P-1" target="JiMifVL7XntbfqWGSU4P-8" edge="1">
          <mxGeometry width="50" height="50" relative="1" as="geometry">
            <mxPoint x="330" y="380" as="sourcePoint" />
            <mxPoint x="440" y="390" as="targetPoint" />
          </mxGeometry>
        </mxCell>
        <mxCell id="JiMifVL7XntbfqWGSU4P-45" value="" style="endArrow=none;html=1;rounded=0;entryX=1.017;entryY=0.588;entryDx=0;entryDy=0;entryPerimeter=0;exitX=0;exitY=0.5;exitDx=0;exitDy=0;" parent="1" source="JiMifVL7XntbfqWGSU4P-12" target="JiMifVL7XntbfqWGSU4P-8" edge="1">
          <mxGeometry width="50" height="50" relative="1" as="geometry">
            <mxPoint x="360.96000000000004" y="470" as="sourcePoint" />
            <mxPoint x="440" y="390" as="targetPoint" />
          </mxGeometry>
        </mxCell>
        <mxCell id="JiMifVL7XntbfqWGSU4P-46" value="Location" style="rounded=1;whiteSpace=wrap;html=1;" parent="1" vertex="1">
          <mxGeometry x="195" y="550" width="120" height="60" as="geometry" />
        </mxCell>
        <mxCell id="JiMifVL7XntbfqWGSU4P-47" value="" style="endArrow=none;html=1;rounded=0;entryX=0.5;entryY=1;entryDx=0;entryDy=0;exitX=0.417;exitY=-0.067;exitDx=0;exitDy=0;exitPerimeter=0;" parent="1" source="JiMifVL7XntbfqWGSU4P-46" target="JiMifVL7XntbfqWGSU4P-8" edge="1">
          <mxGeometry width="50" height="50" relative="1" as="geometry">
            <mxPoint x="390" y="440" as="sourcePoint" />
            <mxPoint x="440" y="390" as="targetPoint" />
          </mxGeometry>
        </mxCell>
        <mxCell id="JiMifVL7XntbfqWGSU4P-48" value="IsPlayable" style="rounded=1;whiteSpace=wrap;html=1;" parent="1" vertex="1">
          <mxGeometry x="240" y="130" width="120" height="60" as="geometry" />
        </mxCell>
        <mxCell id="JiMifVL7XntbfqWGSU4P-49" value="" style="endArrow=none;html=1;rounded=0;entryX=0;entryY=1;entryDx=0;entryDy=0;" parent="1" source="JiMifVL7XntbfqWGSU4P-48" target="JiMifVL7XntbfqWGSU4P-1" edge="1">
          <mxGeometry width="50" height="50" relative="1" as="geometry">
            <mxPoint x="510" y="440" as="sourcePoint" />
            <mxPoint x="560" y="390" as="targetPoint" />
          </mxGeometry>
        </mxCell>
        <mxCell id="AFnTuItqyZxISpbOZ0np-1" value="Dialog" style="ellipse;whiteSpace=wrap;html=1;" parent="1" vertex="1">
          <mxGeometry x="1050" y="130" width="120" height="80" as="geometry" />
        </mxCell>
        <mxCell id="AFnTuItqyZxISpbOZ0np-2" value="Id" style="rounded=1;whiteSpace=wrap;html=1;" parent="1" vertex="1">
          <mxGeometry x="1230" y="118" width="120" height="60" as="geometry" />
        </mxCell>
        <mxCell id="AFnTuItqyZxISpbOZ0np-3" value="" style="endArrow=none;html=1;rounded=0;entryX=-0.017;entryY=0.383;entryDx=0;entryDy=0;entryPerimeter=0;exitX=0.983;exitY=0.363;exitDx=0;exitDy=0;exitPerimeter=0;" parent="1" source="AFnTuItqyZxISpbOZ0np-1" target="AFnTuItqyZxISpbOZ0np-2" edge="1">
          <mxGeometry width="50" height="50" relative="1" as="geometry">
            <mxPoint x="1000" y="440" as="sourcePoint" />
            <mxPoint x="1050" y="390" as="targetPoint" />
          </mxGeometry>
        </mxCell>
        <mxCell id="AFnTuItqyZxISpbOZ0np-5" value="" style="endArrow=none;html=1;rounded=0;entryX=1;entryY=0.5;entryDx=0;entryDy=0;exitX=0;exitY=0.5;exitDx=0;exitDy=0;" parent="1" source="RoCBLJe5EOopQciZGGZf-5" target="JiMifVL7XntbfqWGSU4P-1" edge="1">
          <mxGeometry width="50" height="50" relative="1" as="geometry">
            <mxPoint x="1000" y="440" as="sourcePoint" />
            <mxPoint x="1080" y="220" as="targetPoint" />
          </mxGeometry>
        </mxCell>
        <mxCell id="37agxuAGYMkc63FDEHQi-1" value="Player" style="ellipse;whiteSpace=wrap;html=1;" parent="1" vertex="1">
          <mxGeometry x="626" y="-130" width="120" height="80" as="geometry" />
        </mxCell>
        <mxCell id="37agxuAGYMkc63FDEHQi-2" value="Id" style="rounded=1;whiteSpace=wrap;html=1;" parent="1" vertex="1">
          <mxGeometry x="816" y="-120" width="120" height="60" as="geometry" />
        </mxCell>
        <mxCell id="37agxuAGYMkc63FDEHQi-4" value="" style="endArrow=none;html=1;rounded=0;entryX=1;entryY=0.5;entryDx=0;entryDy=0;exitX=0;exitY=0.5;exitDx=0;exitDy=0;" parent="1" source="37agxuAGYMkc63FDEHQi-2" target="37agxuAGYMkc63FDEHQi-1" edge="1">
          <mxGeometry width="50" height="50" relative="1" as="geometry">
            <mxPoint x="560" y="240" as="sourcePoint" />
            <mxPoint x="610" y="190" as="targetPoint" />
          </mxGeometry>
        </mxCell>
        <mxCell id="37agxuAGYMkc63FDEHQi-5" value="" style="endArrow=none;html=1;rounded=0;entryX=0;entryY=1;entryDx=0;entryDy=0;exitX=1;exitY=0.5;exitDx=0;exitDy=0;" parent="1" source="JiMifVL7XntbfqWGSU4P-1" target="37agxuAGYMkc63FDEHQi-1" edge="1">
          <mxGeometry width="50" height="50" relative="1" as="geometry">
            <mxPoint x="560" y="240" as="sourcePoint" />
            <mxPoint x="610" y="190" as="targetPoint" />
          </mxGeometry>
        </mxCell>
        <mxCell id="RoCBLJe5EOopQciZGGZf-1" value="PreviousDialogId" style="rounded=1;whiteSpace=wrap;html=1;" parent="1" vertex="1">
          <mxGeometry x="1230" y="193" width="120" height="60" as="geometry" />
        </mxCell>
        <mxCell id="RoCBLJe5EOopQciZGGZf-2" value="" style="endArrow=none;html=1;rounded=0;entryX=0;entryY=0.5;entryDx=0;entryDy=0;exitX=0.95;exitY=0.7;exitDx=0;exitDy=0;exitPerimeter=0;" parent="1" source="AFnTuItqyZxISpbOZ0np-1" target="RoCBLJe5EOopQciZGGZf-1" edge="1">
          <mxGeometry width="50" height="50" relative="1" as="geometry">
            <mxPoint x="790" y="140" as="sourcePoint" />
            <mxPoint x="840" y="90" as="targetPoint" />
          </mxGeometry>
        </mxCell>
        <mxCell id="RoCBLJe5EOopQciZGGZf-5" value="DialogSession" style="ellipse;whiteSpace=wrap;html=1;" parent="1" vertex="1">
          <mxGeometry x="900" y="-20" width="120" height="80" as="geometry" />
        </mxCell>
        <mxCell id="RoCBLJe5EOopQciZGGZf-6" value="Id" style="rounded=1;whiteSpace=wrap;html=1;" parent="1" vertex="1">
          <mxGeometry x="1130" y="-102" width="120" height="60" as="geometry" />
        </mxCell>
        <mxCell id="RoCBLJe5EOopQciZGGZf-7" value="" style="endArrow=none;html=1;rounded=0;entryX=0;entryY=0.5;entryDx=0;entryDy=0;exitX=1;exitY=0;exitDx=0;exitDy=0;" parent="1" source="RoCBLJe5EOopQciZGGZf-5" target="RoCBLJe5EOopQciZGGZf-6" edge="1">
          <mxGeometry width="50" height="50" relative="1" as="geometry">
            <mxPoint x="790" y="140" as="sourcePoint" />
            <mxPoint x="840" y="90" as="targetPoint" />
          </mxGeometry>
        </mxCell>
        <mxCell id="RoCBLJe5EOopQciZGGZf-8" value="State" style="rounded=1;whiteSpace=wrap;html=1;" parent="1" vertex="1">
          <mxGeometry x="1130" y="-22" width="120" height="60" as="geometry" />
        </mxCell>
        <mxCell id="RoCBLJe5EOopQciZGGZf-9" value="" style="endArrow=none;html=1;rounded=0;entryX=0;entryY=0.5;entryDx=0;entryDy=0;exitX=1;exitY=0.5;exitDx=0;exitDy=0;" parent="1" source="RoCBLJe5EOopQciZGGZf-5" target="RoCBLJe5EOopQciZGGZf-8" edge="1">
          <mxGeometry width="50" height="50" relative="1" as="geometry">
            <mxPoint x="790" y="140" as="sourcePoint" />
            <mxPoint x="840" y="90" as="targetPoint" />
          </mxGeometry>
        </mxCell>
        <mxCell id="RoCBLJe5EOopQciZGGZf-10" value="" style="endArrow=none;html=1;rounded=0;entryX=0.758;entryY=0.988;entryDx=0;entryDy=0;entryPerimeter=0;" parent="1" source="AFnTuItqyZxISpbOZ0np-1" target="RoCBLJe5EOopQciZGGZf-5" edge="1">
          <mxGeometry width="50" height="50" relative="1" as="geometry">
            <mxPoint x="790" y="140" as="sourcePoint" />
            <mxPoint x="840" y="90" as="targetPoint" />
          </mxGeometry>
        </mxCell>
      </root>
    </mxGraphModel>
  </diagram>
  <diagram id="XjuJmSmEMAtAc5OgdtYD" name="Entities-2">
    <mxGraphModel dx="1434" dy="836" grid="1" gridSize="10" guides="1" tooltips="1" connect="1" arrows="1" fold="1" page="1" pageScale="1" pageWidth="827" pageHeight="1169" math="0" shadow="0">
      <root>
        <mxCell id="0" />
        <mxCell id="1" parent="0" />
        <mxCell id="H1ZNAuoDwLqhpFzYkhHu-1" value="Game" style="ellipse;whiteSpace=wrap;html=1;" vertex="1" parent="1">
          <mxGeometry x="350" y="390" width="120" height="80" as="geometry" />
        </mxCell>
        <mxCell id="H1ZNAuoDwLqhpFzYkhHu-2" value="Player" style="rounded=1;whiteSpace=wrap;html=1;" vertex="1" parent="1">
          <mxGeometry x="540" y="350" width="120" height="60" as="geometry" />
        </mxCell>
        <mxCell id="H1ZNAuoDwLqhpFzYkhHu-3" value="" style="endArrow=none;html=1;rounded=0;entryX=0;entryY=0.5;entryDx=0;entryDy=0;exitX=0.908;exitY=0.213;exitDx=0;exitDy=0;exitPerimeter=0;" edge="1" parent="1" source="H1ZNAuoDwLqhpFzYkhHu-1" target="H1ZNAuoDwLqhpFzYkhHu-2">
          <mxGeometry width="50" height="50" relative="1" as="geometry">
            <mxPoint x="390" y="450" as="sourcePoint" />
            <mxPoint x="440" y="400" as="targetPoint" />
          </mxGeometry>
        </mxCell>
      </root>
    </mxGraphModel>
  </diagram>
</mxfile>
